<!-- SVG Icon for PWA -->
<svg xmlns="http://www.w3.org/2000/svg" width="512" height="512" viewBox="0 0 512 512">
  <!-- Background -->
  <rect width="512" height="512" fill="#000000" rx="100" />
  
  <!-- Dumbbell Icon -->
  <g transform="translate(106, 186) scale(0.3)">
    <!-- Left Weight -->
    <rect x="10" y="170" width="80" height="160" rx="15" fill="#e53935" />
    <rect x="10" y="370" width="80" height="160" rx="15" fill="#e53935" />
    
    <!-- Bar -->
    <rect x="50" y="330" width="400" height="40" rx="10" fill="#757575" />
    
    <!-- Right Weight -->
    <rect x="410" y="170" width="80" height="160" rx="15" fill="#e53935" />
    <rect x="410" y="370" width="80" height="160" rx="15" fill="#e53935" />
  </g>
  
  <!-- Apple/Food Icon -->
  <g transform="translate(320, 180) scale(0.4)">
    <circle cx="100" cy="100" r="85" fill="#212121" />
    <path d="M100,40 C130,40 140,60 140,80 C140,40 180,30 180,80 C180,150 100,200 100,200 C100,200 20,150 20,80 C20,30 60,40 60,80 C60,60 70,40 100,40 Z" fill="#e53935" />
  </g>
  
  <!-- Text -->
  <text x="256" y="390" font-family="Arial" font-size="70" font-weight="bold" text-anchor="middle" fill="#e53935">FitLife</text>
</svg>
